<svg t="1765214542745" class="icon" viewBox="0 0 1024 1024" version="1.1" xmlns="http://www.w3.org/2000/svg" p-id="6331" width="200" height="200"><path d="M512 570.368m-453.632 0a453.632 453.632 0 1 0 907.264 0 453.632 453.632 0 1 0-907.264 0Z" fill="#1750E5" opacity=".1" p-id="6332"></path><path d="M562.176 276.48c-32.768 0-58.368-19.456-70.656-34.816-32.768-33.792-20.48-90.112-19.456-92.16 1.024-3.072 3.072-6.144 6.144-8.192 14.336-6.144 142.336-61.44 172.032 2.048 23.552 50.176-9.216 95.232-29.696 111.616-20.48 16.384-40.96 21.504-58.368 21.504z m-69.632-115.712c-2.048 13.312-4.096 47.104 15.36 66.56 0 0 0 1.024 1.024 1.024 2.048 2.048 43.008 51.2 97.28 10.24 1.024-1.024 45.056-36.864 22.528-82.944-16.384-36.864-100.352-10.24-136.192 5.12z" fill="#1750E5" p-id="6333"></path><path d="M422.912 141.312s21.504-15.36 37.888-16.384c0 0 15.36-5.12 20.48-16.384 0 0 11.264-61.44 75.776-63.488 0 0 68.608 3.072 84.992 67.584 0 0 7.168 28.672 19.456 28.672 0 0 6.144 21.504-110.592 25.6 0-2.048-124.928 2.048-128-25.6z" fill="#A3D4FF" p-id="6334"></path><path d="M527.36 177.152c-50.176 0-112.64-6.144-115.712-34.816-1.024-4.096 1.024-8.192 5.12-11.264 2.048-2.048 23.552-16.384 41.984-18.432 3.072-1.024 9.216-5.12 12.288-9.216 5.12-24.576 29.696-69.632 87.04-71.68 27.648 1.024 81.92 18.432 96.256 75.776 2.048 8.192 6.144 17.408 9.216 19.456 5.12 0 9.216 4.096 10.24 8.192 1.024 2.048 1.024 7.168-3.072 14.336-4.096 5.12-16.384 22.528-117.76 26.624-9.216 0-17.408 1.024-25.6 1.024zM440.32 143.36c17.408 7.168 63.488 11.264 110.592 10.24 56.32-2.048 81.92-8.192 92.16-12.288-7.168-9.216-11.264-21.504-12.288-26.624-13.312-54.272-71.68-58.368-73.728-58.368-54.272 2.048-63.488 52.224-64.512 54.272 0 1.024 0 2.048-1.024 3.072-7.168 15.36-25.6 22.528-27.648 22.528-1.024 0-2.048 0-3.072 1.024-5.12-1.024-13.312 3.072-20.48 6.144zM866.304 897.024H798.72c-4.096 0-9.216-3.072-10.24-7.168l-98.304-226.304-174.08-238.592c-1.024-2.048-27.648-37.888-19.456-78.848 5.12-24.576 21.504-45.056 48.128-60.416 0 0 1.024 0 1.024-1.024 2.048-1.024 44.032-18.432 82.944-2.048 22.528 9.216 38.912 27.648 49.152 54.272l142.336 263.168c1.024 1.024 1.024 2.048 1.024 3.072l56.32 278.528c1.024 3.072 0 7.168-2.048 9.216-2.048 5.12-5.12 6.144-9.216 6.144z m-59.392-22.528h46.08L798.72 612.352 657.408 349.184s0-1.024-1.024-1.024c-8.192-21.504-20.48-35.84-36.864-41.984-27.648-12.288-59.392 0-64.512 1.024-20.48 12.288-32.768 26.624-36.864 44.032-6.144 30.72 14.336 60.416 15.36 60.416l-9.216 7.168 9.216-7.168 175.104 239.616c0 1.024 1.024 1.024 1.024 2.048l97.28 221.184z" fill="#1750E5" p-id="6335"></path><path d="M613.376 897.024h-71.68c-3.072 0-6.144-1.024-8.192-3.072s-3.072-5.12-3.072-8.192l9.216-176.128c0-2.048 1.024-4.096 2.048-6.144L626.688 573.44c2.048-3.072 5.12-5.12 9.216-5.12s7.168 1.024 9.216 4.096l63.488 78.848c1.024 1.024 2.048 3.072 2.048 4.096l11.264 43.008c1.024 4.096 0 9.216-4.096 11.264L652.288 768 624.64 888.832c-1.024 5.12-6.144 8.192-11.264 8.192z m-59.392-22.528H604.16l26.624-115.712c1.024-2.048 2.048-4.096 4.096-6.144l64.512-55.296-9.216-33.792-52.224-64.512L563.2 713.728l-9.216 160.768zM849.92 960.512H735.232c-6.144 0-11.264-5.12-11.264-10.24-3.072-46.08 60.416-73.728 63.488-74.752 1.024-1.024 3.072-1.024 4.096-1.024h74.752c3.072 0 6.144 1.024 8.192 4.096 2.048 2.048 3.072 6.144 3.072 9.216l-3.072 23.552c-2.048 31.744-14.336 44.032-16.384 46.08-2.048 2.048-5.12 3.072-8.192 3.072z m-101.376-22.528h96.256c2.048-4.096 6.144-13.312 7.168-28.672l2.048-11.264h-58.368c-14.336 5.12-39.936 20.48-47.104 39.936z" fill="#1750E5" p-id="6336"></path><path d="M591.872 969.728h-112.64c-6.144 0-11.264-4.096-11.264-10.24-5.12-47.104 60.416-80.896 68.608-83.968 2.048-1.024 4.096-1.024 6.144-1.024l71.68 6.144c6.144 0 10.24 5.12 10.24 11.264V939.008c-3.072 22.528-21.504 30.72-30.72 31.744-1.024-1.024-1.024-1.024-2.048-1.024z m-99.328-22.528h99.328c2.048 0 8.192-2.048 10.24-11.264v-33.792l-57.344-5.12c-15.36 9.216-46.08 28.672-52.224 50.176zM510.976 462.848c-112.64 0-186.368-117.76-193.536-131.072-14.336-16.384-19.456-31.744-17.408-47.104 3.072-19.456 19.456-28.672 20.48-29.696 0 0 1.024 0 1.024-1.024 43.008-17.408 78.848 46.08 83.968 55.296 38.912 57.344 96.256 37.888 97.28 37.888 4.096-1.024 8.192-1.024 11.264 2.048s4.096 7.168 4.096 10.24c-4.096 25.6 24.576 65.536 36.864 78.848 3.072 3.072 3.072 7.168 2.048 11.264-1.024 4.096-4.096 7.168-8.192 7.168-13.312 5.12-25.6 6.144-37.888 6.144zM331.776 275.456c-2.048 1.024-8.192 6.144-9.216 13.312-1.024 8.192 3.072 18.432 12.288 28.672 0 1.024 1.024 1.024 1.024 2.048 1.024 1.024 77.824 130.048 189.44 119.808-11.264-16.384-26.624-41.984-29.696-66.56-24.576 3.072-73.728 2.048-108.544-50.176 0 0 0-1.024-1.024-1.024-7.168-14.336-33.792-53.248-54.272-46.08z" fill="#1750E5" p-id="6337"></path><path d="M276.48 345.088c-3.072 0-7.168-1.024-9.216-4.096-4.096-5.12-3.072-12.288 2.048-16.384l36.864-28.672c5.12-4.096 12.288-3.072 16.384 2.048 4.096 5.12 3.072 12.288-2.048 16.384l-36.864 28.672c-2.048 2.048-5.12 2.048-7.168 2.048zM354.304 283.648c-3.072 0-6.144-1.024-9.216-4.096-4.096-5.12-3.072-12.288 1.024-16.384l58.368-50.176c5.12-4.096 12.288-3.072 16.384 1.024 4.096 5.12 3.072 12.288-1.024 16.384l-58.368 50.176c-2.048 2.048-4.096 3.072-7.168 3.072z" fill="#1750E5" p-id="6338"></path><path d="M438.272 276.48c-2.048 0-4.096 0-5.12-1.024-5.12-3.072-7.168-10.24-4.096-15.36 1.024-2.048 1.024-4.096 1.024-4.096l-55.296-65.536c-4.096-5.12-3.072-12.288 1.024-16.384 5.12-4.096 12.288-3.072 16.384 1.024l55.296 66.56c4.096 4.096 9.216 16.384 1.024 29.696-2.048 3.072-6.144 5.12-10.24 5.12z" fill="#1750E5" p-id="6339"></path><path d="M542.72 389.12s-13.312-47.104 51.2-55.296c0 0 75.776 7.168 52.224 86.016 0 0-37.888 146.432-176.128 167.936 0 0-110.592 26.624-116.736-9.216 0 0-10.24-29.696 18.432-37.888 0 0 92.16-7.168 134.144-55.296 1.024 0 51.2-49.152 36.864-96.256z" fill="#A3D4FF" p-id="6340"></path><path d="M399.36 608.256c-17.408 0-32.768-2.048-43.008-9.216-7.168-4.096-11.264-10.24-12.288-18.432-1.024-4.096-5.12-19.456 2.048-32.768 3.072-6.144 10.24-14.336 24.576-18.432h2.048c1.024 0 88.064-7.168 125.952-51.2 1.024-1.024 45.056-46.08 33.792-86.016 0-1.024-6.144-21.504 7.168-40.96 10.24-15.36 28.672-24.576 54.272-28.672h3.072c1.024 0 37.888 4.096 56.32 31.744 12.288 18.432 14.336 40.96 6.144 68.608 0 1.024-40.96 154.624-185.344 176.128-10.24 2.048-44.032 9.216-74.752 9.216zM374.784 552.96c-4.096 1.024-7.168 3.072-9.216 6.144-3.072 5.12-1.024 13.312-1.024 16.384v2.048c0 1.024 1.024 2.048 3.072 4.096 15.36 10.24 67.584 4.096 99.328-4.096C596.992 558.08 633.856 419.84 634.88 418.816c6.144-21.504 5.12-37.888-3.072-49.152-11.264-16.384-32.768-21.504-38.912-21.504-17.408 3.072-29.696 8.192-35.84 17.408-7.168 10.24-4.096 21.504-4.096 22.528 15.36 52.224-36.864 105.472-38.912 107.52-40.96 46.08-126.976 56.32-139.264 57.344z" fill="#1750E5" p-id="6341"></path><path d="M322.56 633.856H139.264c-23.552 0-41.984-18.432-41.984-41.984s18.432-41.984 41.984-41.984h182.272c23.552 0 41.984 18.432 41.984 41.984s-18.432 41.984-40.96 41.984z m-183.296-61.44c-10.24 0-19.456 8.192-19.456 19.456s8.192 19.456 19.456 19.456h182.272c10.24 0 19.456-8.192 19.456-19.456s-8.192-19.456-19.456-19.456H139.264z" fill="#1750E5" p-id="6342"></path><path d="M246.784 976.896h-15.36c-43.008 0-77.824-34.816-77.824-77.824v-296.96c0-6.144 5.12-11.264 11.264-11.264h148.48c6.144 0 11.264 5.12 11.264 11.264v296.96c0 43.008-34.816 77.824-77.824 77.824z m-70.656-364.544v285.696c0 30.72 24.576 55.296 55.296 55.296h15.36c30.72 0 55.296-24.576 55.296-55.296V612.352H176.128z" fill="#1750E5" p-id="6343"></path></svg>